<?xml version="1.0" encoding="UTF-8"?>
<svg width="360px" height="372px" viewBox="0 0 360 372" version="1.1" xmlns="http://www.w3.org/2000/svg" xmlns:xlink="http://www.w3.org/1999/xlink">
    <!-- Generator: Sketch 56.3 (81716) - https://sketch.com -->
    <title>PKP</title>
    <desc>Created with Sketch.</desc>
    <g id="Page-1" stroke="none" stroke-width="1" fill="none" fill-rule="evenodd">
        <g id="LOGOS" transform="translate(-1580.000000, -140.000000)" fill="#000000" fill-rule="nonzero">
            <path d="M1840.17756,297.121511 C1840.37884,297.067409 1840.61622,297.037037 1840.89412,297.037037 C1842.8,297.037037 1845.34118,296.613757 1847.24706,296.190476 C1851.48235,295.343915 1852.54118,290.687831 1853.38824,284.550265 C1854.44706,275.661376 1854.44706,258.941799 1854.44706,238.624339 L1854.44706,201.375661 C1854.44706,168.359788 1854.44706,162.433862 1854.02353,155.661376 C1853.6,148.465608 1851.90588,145.079365 1844.91765,143.597884 C1843.22353,143.174603 1839.62353,142.962963 1837.71765,142.962963 C1836.87059,142.962963 1836.02353,142.539683 1836.02353,141.693122 C1836.02353,140.42328 1837.08235,140 1839.41176,140 C1848.94118,140 1861.64706,140.634921 1863.34118,140.634921 C1868,140.634921 1880.28235,140 1890.02353,140 C1916.49412,140 1926.02353,148.888889 1929.41176,152.063492 C1934.07059,156.507937 1940,166.031746 1940,179.78836 C1940,207.301587 1917.97647,227.619048 1887.90588,227.619048 C1886.84706,227.619048 1884.51765,227.619048 1883.45882,227.407407 C1882.4,227.407407 1881.12941,226.984127 1881.12941,225.925926 C1881.12941,224.232804 1882.4,224.021164 1886.84706,224.021164 C1907.38824,224.021164 1923.48235,210.05291 1923.48235,187.830688 C1923.48235,182.539683 1922.84706,168.359788 1911.62353,156.931217 C1900.4,145.502646 1887.48235,146.349206 1882.61176,146.349206 C1879.01176,146.349206 1875.41176,146.772487 1873.50588,147.619048 C1872.23529,148.042328 1871.81176,149.52381 1871.81176,151.640212 L1871.81176,238.624339 C1871.81176,258.941799 1871.81176,275.661376 1872.87059,284.550265 C1873.50588,290.687831 1874.77647,295.343915 1881.12941,296.190476 C1884.09412,296.613757 1888.75294,297.037037 1890.65882,297.037037 C1891.92941,297.037037 1892.35294,297.671958 1892.35294,298.306878 C1892.35294,299.365079 1891.29412,300 1888.96471,300 C1877.31765,300 1863.97647,299.365079 1862.91765,299.365079 C1862.28235,299.365079 1848.94118,300 1842.58824,300 C1841.81078,300 1841.17485,299.952849 1840.67259,299.84281 C1840.19717,299.95043 1839.57362,300 1838.77647,300 L1823.10588,300 C1804.68235,300 1799.81176,297.671958 1789.85882,289.84127 C1777.15294,279.89418 1739.03529,239.047619 1720.4,216.825397 L1720.4,238.624339 C1720.4,258.941799 1720.4,275.661376 1721.45882,284.550265 C1722.09412,290.687831 1723.36471,295.343915 1729.71765,296.190476 C1732.68235,296.613757 1736.91765,297.037037 1738.18824,297.037037 C1740.09412,297.037037 1740.72941,297.883598 1740.72941,298.518519 C1740.72941,299.57672 1739.88235,300 1737.55294,300 C1725.90588,300 1712.56471,299.365079 1711.50588,299.365079 C1710.44706,299.365079 1697.95294,300 1691.6,300 C1689.27059,300 1688.21176,299.78836 1688.21176,298.518519 C1688.21176,297.883598 1688.63529,297.037037 1690.54118,297.037037 C1691.81176,297.037037 1694.14118,296.825397 1696.04706,296.402116 C1700.28235,295.555556 1701.55294,290.687831 1702.4,284.550265 C1703.45882,275.661376 1703.45882,258.941799 1703.45882,238.624339 L1703.45882,201.375661 C1703.45882,168.359788 1703.45882,162.433862 1703.03529,155.661376 C1702.61176,148.465608 1700.49412,144.867725 1695.83529,143.809524 C1693.50588,143.174603 1689.69412,142.962963 1688.21176,142.962963 C1686.51765,142.962963 1685.88235,142.539683 1685.88235,141.693122 C1685.88235,140.42328 1686.94118,140 1689.27059,140 C1696.25882,140 1710.44706,140.634921 1711.50588,140.634921 C1712.56471,140.634921 1725.90588,140 1732.25882,140 C1734.58824,140 1735.64706,140.42328 1735.64706,141.481481 C1735.64706,142.328042 1735.22353,142.751323 1733.31765,142.962963 C1730.98824,143.174603 1730.77647,143.174603 1728.65882,143.386243 C1722.94118,144.021164 1721.24706,148.253968 1720.82353,155.661376 C1720.4,162.433862 1720.4,168.359788 1720.4,201.375661 L1720.4,214.920635 C1726.96471,208.571429 1755.76471,178.306878 1768.68235,164.973545 C1781.38824,151.851852 1782.23529,149.73545 1782.23529,147.195767 C1782.23529,145.502646 1781.17647,143.809524 1779.48235,143.174603 C1778,142.539683 1777.57647,142.116402 1777.57647,141.269841 C1777.57647,140.42328 1778.84706,140 1780.75294,140 C1786.89412,140 1786.25882,140.634921 1793.45882,140.634921 C1800.02353,140.634921 1812.51765,140 1815.90588,140 C1818.87059,140 1819.50588,140.634921 1819.50588,141.481481 C1819.50588,142.328042 1819.08235,142.751323 1817.17647,142.962963 C1813.15294,143.386243 1809.34118,144.232804 1806.37647,145.502646 C1801.08235,147.619048 1797.05882,150.15873 1784.35294,162.433862 C1765.71765,180.42328 1741.57647,204.338624 1736.07059,210.47619 C1749.41176,225.079365 1787.95294,264.232804 1797.90588,273.544974 C1815.27059,289.84127 1822.68235,294.497354 1832.84706,296.402116 C1834.75294,296.825397 1836.87059,297.037037 1838.98824,297.037037 C1839.41627,297.037037 1839.81726,297.064057 1840.17756,297.121511 Z M1584.543,365.072 L1584.543,356.222 C1584.543,348.08 1584.543,347.018 1584.425,345.425 C1584.307,343.891 1583.835,342.947 1582.183,342.593 C1581.77,342.534 1580.826,342.475 1580.354,342.475 C1580.236,342.475 1580,342.357 1580,342.18 C1580,341.826 1580.295,341.708 1580.826,341.708 C1583.363,341.708 1586.608,341.885 1586.962,341.885 C1588.201,341.885 1591.21,341.708 1593.629,341.708 C1600.119,341.708 1602.479,343.832 1603.305,344.54 C1604.426,345.543 1605.901,347.844 1605.901,351.148 C1605.901,357.697 1600.473,362.476 1593.098,362.476 C1592.862,362.476 1592.272,362.476 1591.977,362.417 C1591.741,362.417 1591.446,362.299 1591.446,362.063 C1591.446,361.591 1591.8,361.591 1592.921,361.591 C1597.582,361.591 1601.476,358.405 1601.476,353.213 C1601.476,352.446 1601.653,348.906 1598.939,346.074 C1596.048,343.006 1592.685,343.301 1591.623,343.301 C1590.856,343.301 1589.971,343.419 1589.617,343.596 C1589.322,343.714 1589.263,344.127 1589.263,344.54 L1589.263,364.954 C1589.263,369.497 1589.263,373.745 1589.499,375.869 C1589.676,377.285 1589.971,378.465 1591.564,378.642 C1592.272,378.76 1593.452,378.878 1593.924,378.878 C1594.16,378.878 1594.278,378.996 1594.278,379.173 C1594.278,379.468 1594.042,379.645 1593.452,379.645 C1590.384,379.645 1587.08,379.468 1586.785,379.468 C1586.726,379.468 1583.245,379.645 1581.593,379.645 C1581.062,379.645 1580.767,379.527 1580.767,379.173 C1580.767,378.996 1580.885,378.878 1581.18,378.878 C1581.593,378.878 1582.242,378.76 1582.714,378.642 C1583.776,378.465 1584.071,377.285 1584.248,375.869 C1584.543,373.745 1584.543,369.497 1584.543,365.072 Z M1615.38861,356.222 L1615.38861,363.243 C1615.38861,370.441 1616.74561,373.509 1618.98761,375.515 C1621.52461,377.757 1624.35661,378.229 1626.77561,378.229 C1629.84361,378.229 1632.61661,377.403 1634.85861,374.807 C1637.21861,372.093 1637.74961,367.609 1637.74961,362.476 L1637.74961,356.222 C1637.74961,348.493 1637.74961,347.136 1637.63161,345.543 C1637.51361,343.832 1637.33661,342.947 1635.44861,342.652 C1635.03561,342.593 1634.32761,342.534 1633.79661,342.534 C1633.44261,342.534 1633.20661,342.357 1633.20661,342.18 C1633.20661,341.826 1633.50161,341.708 1634.03261,341.708 C1636.56961,341.708 1639.51961,341.885 1639.75561,341.885 C1640.05061,341.885 1642.58761,341.708 1644.23961,341.708 C1644.82961,341.708 1645.06561,341.826 1645.06561,342.121 C1645.06561,342.357 1644.82961,342.534 1644.47561,342.534 C1644.12161,342.534 1644.00361,342.534 1643.41361,342.593 C1641.76161,342.77 1641.52561,343.832 1641.40761,345.543 C1641.34861,347.136 1641.34861,348.493 1641.34861,356.222 L1641.34861,361.473 C1641.34861,366.783 1640.75861,373.155 1636.56961,376.754 C1632.73461,379.999 1628.95861,380.294 1625.77261,380.294 C1624.12061,380.294 1618.57461,380.294 1614.73961,376.754 C1612.20261,374.394 1610.37361,370.854 1610.37361,363.538 L1610.37361,356.222 C1610.37361,348.434 1610.37361,347.077 1610.19661,345.484 C1610.13761,343.891 1609.84261,342.888 1608.01361,342.652 C1607.65961,342.593 1606.95161,342.534 1606.47961,342.534 C1606.06661,342.534 1605.83061,342.357 1605.83061,342.18 C1605.83061,341.826 1606.06661,341.708 1606.71561,341.708 C1609.25261,341.708 1612.43861,341.885 1612.85161,341.885 C1613.32361,341.885 1616.80461,341.708 1618.39761,341.708 C1619.04661,341.708 1619.22361,341.826 1619.22361,342.121 C1619.22361,342.416 1618.81061,342.534 1618.51561,342.534 C1618.16161,342.534 1617.68961,342.593 1617.21761,342.652 C1615.80161,342.829 1615.56561,343.832 1615.44761,345.484 C1615.38861,347.077 1615.38861,348.434 1615.38861,356.222 Z M1651.24923,365.072 L1651.24923,356.222 C1651.24923,348.493 1651.24923,347.018 1651.13123,345.425 C1651.01323,343.832 1650.60023,343.006 1648.83023,342.652 C1648.35823,342.593 1647.53223,342.534 1647.41423,342.534 C1646.88323,342.534 1646.64723,342.357 1646.64723,342.121 C1646.64723,341.826 1647.00123,341.708 1647.53223,341.708 C1650.01023,341.708 1653.55023,341.885 1653.66823,341.885 C1655.08423,341.885 1657.03123,341.708 1659.33223,341.708 C1668.18223,341.708 1669.95223,346.605 1669.95223,349.142 C1669.95223,353.508 1667.47423,356.281 1664.99623,358.228 C1668.94923,359.408 1674.02323,363.007 1674.02323,368.789 C1674.02323,374.276 1669.59823,379.763 1660.63023,379.763 C1659.68623,379.763 1658.50623,379.645 1656.97223,379.645 C1655.32023,379.527 1653.90423,379.468 1653.66823,379.468 C1651.83923,379.468 1650.30523,379.645 1648.35823,379.645 C1647.82723,379.645 1647.53223,379.527 1647.53223,379.291 C1647.53223,379.114 1647.59123,378.819 1648.35823,378.819 C1648.77123,378.819 1648.94823,378.819 1649.42023,378.701 C1650.42323,378.524 1650.77723,377.285 1650.95423,375.869 C1651.24923,373.686 1651.24923,369.674 1651.24923,365.072 Z M1655.85123,344.127 L1655.85123,357.284 C1655.85123,357.697 1655.96923,357.756 1656.14623,357.874 C1656.50023,357.933 1657.14923,358.051 1659.09623,358.051 C1662.10523,358.051 1662.99023,357.874 1664.11123,356.635 C1665.05523,355.514 1665.64523,353.862 1665.64523,351.915 C1665.64523,347.844 1663.81623,343.301 1658.80123,343.301 C1658.32923,343.301 1657.09023,343.419 1656.55923,343.596 C1656.02823,343.714 1655.85123,343.832 1655.85123,344.127 Z M1655.85123,360.057 L1655.85123,362.358 C1655.85123,366.075 1655.85123,372.565 1655.91023,373.037 C1656.08723,375.633 1656.02823,376.4 1657.79823,377.167 C1659.21423,377.875 1661.57423,377.934 1662.16423,377.934 C1664.70123,377.934 1669.12623,376.695 1669.12623,371.267 C1669.12623,368.258 1668.06423,363.715 1664.05223,361.001 C1662.28223,359.939 1661.22023,359.821 1660.04023,359.703 C1659.03723,359.585 1656.97223,359.585 1656.14623,359.703 C1655.96923,359.703 1655.85123,359.762 1655.85123,360.057 Z M1684.86784,356.222 L1684.86784,365.19 C1684.86784,371.975 1685.10384,375.397 1686.10684,376.341 C1687.05084,377.167 1688.23084,377.521 1692.30184,377.521 C1694.89784,377.521 1697.25784,377.521 1698.55584,375.869 C1699.14584,374.984 1699.55884,373.804 1699.67684,372.919 C1699.73584,372.447 1699.85384,372.211 1700.14884,372.211 C1700.38484,372.211 1700.50284,372.388 1700.50284,372.978 C1700.50284,373.568 1700.14884,376.931 1699.79484,378.288 C1699.44084,379.468 1699.49984,379.763 1696.66784,379.763 C1692.65584,379.763 1688.23084,379.468 1682.33084,379.468 C1680.38384,379.468 1679.20384,379.645 1677.13884,379.645 C1676.54884,379.645 1676.19484,379.527 1676.19484,379.173 C1676.19484,378.996 1676.37184,378.819 1676.84384,378.819 C1677.31584,378.819 1677.78784,378.819 1678.25984,378.701 C1679.26284,378.524 1679.61684,377.344 1679.79384,375.928 C1680.14784,373.686 1680.02984,369.615 1680.02984,365.072 L1680.02984,356.222 C1680.02984,348.434 1680.02984,347.136 1679.91184,345.543 C1679.79384,343.891 1679.55784,342.829 1677.55184,342.593 C1677.19784,342.534 1676.54884,342.534 1676.07684,342.534 C1675.66384,342.534 1675.42784,342.357 1675.42784,342.121 C1675.42784,341.826 1675.72284,341.708 1676.31284,341.708 C1678.79084,341.708 1682.33084,341.885 1682.44884,341.885 C1683.27484,341.885 1686.87384,341.708 1688.52584,341.708 C1689.11584,341.708 1689.29284,341.885 1689.29284,342.121 C1689.29284,342.357 1688.99784,342.534 1688.64384,342.534 C1688.23084,342.534 1687.64084,342.593 1687.05084,342.652 C1685.39884,342.888 1685.04484,343.832 1684.92684,345.543 C1684.80884,347.136 1684.86784,348.434 1684.86784,356.222 Z M1705.80146,365.072 L1705.80146,356.222 C1705.80146,348.434 1705.80146,347.018 1705.68346,345.425 C1705.56546,343.832 1705.21146,342.947 1703.97246,342.711 C1703.38246,342.593 1702.96946,342.593 1702.61546,342.534 C1702.20246,342.475 1701.96646,342.357 1701.96646,342.121 C1701.96646,341.826 1702.20246,341.708 1702.85146,341.708 C1704.68046,341.708 1708.04346,341.885 1708.22046,341.885 C1708.45646,341.885 1711.87846,341.708 1713.53046,341.708 C1714.12046,341.708 1714.41546,341.826 1714.41546,342.121 C1714.41546,342.357 1714.23846,342.475 1713.76646,342.534 C1713.41246,342.593 1713.11746,342.593 1712.70446,342.652 C1710.99346,342.888 1710.81646,343.773 1710.69846,345.484 C1710.58046,347.077 1710.63946,348.434 1710.63946,356.222 L1710.63946,365.072 C1710.63946,369.615 1710.58046,373.745 1710.87546,375.869 C1711.11146,377.58 1711.34746,378.229 1712.88146,378.583 C1713.64846,378.76 1714.88746,378.819 1715.12346,378.819 C1715.65446,378.878 1715.77246,378.996 1715.77246,379.232 C1715.77246,379.468 1715.53646,379.645 1714.94646,379.645 C1711.93746,379.645 1708.51546,379.468 1708.22046,379.468 C1708.04346,379.468 1704.56246,379.645 1702.91046,379.645 C1702.37946,379.645 1701.96646,379.527 1701.96646,379.232 C1701.96646,378.996 1702.20246,378.819 1702.73346,378.819 C1703.02846,378.819 1703.67746,378.76 1704.14946,378.642 C1705.15246,378.406 1705.32946,377.226 1705.50646,375.81 C1705.80146,373.686 1705.80146,369.497 1705.80146,365.072 Z M1740.89507,380.294 C1733.10707,380.294 1727.79707,378.524 1723.60807,374.925 C1718.59307,370.559 1717.29507,364.777 1717.29507,359.88 C1717.29507,356.576 1718.59307,350.735 1723.25407,346.251 C1726.44007,343.183 1731.21907,341 1739.12507,341 C1741.83907,341 1744.02207,341.236 1746.91307,341.649 C1748.80107,341.944 1750.68907,342.239 1752.10507,342.298 C1752.57707,342.298 1752.63607,342.593 1752.63607,342.888 C1752.63607,343.36 1752.45907,343.891 1752.34107,345.779 C1752.28207,347.431 1752.28207,350.499 1752.22307,351.207 C1752.16407,352.033 1752.04607,352.328 1751.75107,352.328 C1751.33807,352.328 1751.27907,351.974 1751.27907,351.207 C1751.27907,349.496 1750.45307,347.195 1748.97807,346.074 C1747.20807,344.54 1743.07807,343.065 1738.53507,343.065 C1731.98607,343.065 1728.97707,344.894 1727.20707,346.487 C1723.37207,349.968 1722.48707,354.216 1722.48707,359.408 C1722.48707,369.202 1730.45207,377.816 1740.83607,377.816 C1744.84807,377.816 1747.79807,377.403 1749.86307,375.397 C1750.92507,374.276 1751.51507,372.801 1751.81007,371.149 C1751.92807,370.559 1752.10507,370.264 1752.45907,370.264 C1752.75407,370.264 1752.75407,370.677 1752.75407,371.09 C1752.75407,371.562 1751.98707,376.341 1751.57407,377.639 C1751.22007,378.583 1751.04307,378.76 1750.21707,379.114 C1748.15207,379.999 1744.19907,380.294 1740.89507,380.294 Z M1589.322,415.222 L1589.322,417.995 C1592.036,415.576 1598.467,409.44 1601.122,406.549 C1603.954,403.422 1604.19,403.127 1604.19,402.478 C1604.19,402.065 1603.954,401.77 1603.246,401.534 C1602.833,401.416 1602.597,401.298 1602.597,401.062 C1602.597,400.885 1602.715,400.708 1603.187,400.708 C1603.541,400.708 1605.311,400.885 1607.199,400.885 C1608.969,400.885 1612.214,400.708 1612.981,400.708 C1613.807,400.708 1613.925,400.826 1613.925,401.062 C1613.925,401.298 1613.748,401.475 1613.276,401.534 C1612.332,401.593 1611.093,401.829 1610.385,402.124 C1608.969,402.596 1608.202,403.245 1605.134,406.018 C1600.827,409.912 1595.694,414.927 1593.098,417.287 C1596.284,420.591 1605.842,430.031 1608.32,432.273 C1612.45,436.049 1614.456,437.111 1616.816,437.642 C1617.465,437.76 1617.17,437.701 1618.173,437.819 C1618.704,437.878 1618.999,437.996 1618.999,438.291 C1618.999,438.527 1618.704,438.645 1618.055,438.645 L1614.22,438.645 C1609.618,438.645 1608.438,438.114 1606.078,436.462 C1603.423,434.574 1593.983,424.898 1589.322,419.411 L1589.322,424.072 C1589.322,428.615 1589.263,432.745 1589.558,434.869 C1589.794,436.58 1590.03,437.229 1591.564,437.583 C1592.331,437.76 1593.57,437.819 1593.806,437.819 C1594.337,437.878 1594.455,437.996 1594.455,438.232 C1594.455,438.468 1594.219,438.645 1593.629,438.645 C1590.62,438.645 1587.198,438.468 1586.903,438.468 C1586.726,438.468 1583.245,438.645 1581.593,438.645 C1581.062,438.645 1580.649,438.527 1580.649,438.232 C1580.649,437.996 1580.885,437.819 1581.416,437.819 C1581.711,437.819 1582.36,437.76 1582.832,437.642 C1583.835,437.406 1584.012,436.226 1584.189,434.81 C1584.484,432.686 1584.484,428.497 1584.484,424.072 L1584.484,415.222 C1584.484,407.434 1584.484,406.018 1584.366,404.425 C1584.248,402.832 1583.894,401.947 1582.655,401.711 C1582.065,401.593 1581.652,401.593 1581.298,401.534 C1580.885,401.475 1580.649,401.357 1580.649,401.121 C1580.649,400.826 1580.885,400.708 1581.534,400.708 C1583.363,400.708 1586.726,400.885 1586.903,400.885 C1587.139,400.885 1590.561,400.708 1592.213,400.708 C1592.803,400.708 1593.098,400.826 1593.098,401.121 C1593.098,401.357 1592.921,401.475 1592.449,401.534 C1592.095,401.593 1591.8,401.593 1591.387,401.652 C1589.676,401.888 1589.499,402.773 1589.381,404.484 C1589.263,406.077 1589.322,407.434 1589.322,415.222 Z M1622.33861,431.27 C1622.33861,403.127 1622.39761,412.213 1622.33861,402.419 C1622.33861,400.59 1622.51561,400 1622.98761,400 C1623.40061,400 1624.40361,401.18 1624.81661,401.593 C1625.34761,402.183 1633.54861,410.561 1641.80861,418.998 C1646.41061,423.482 1652.31061,429.559 1653.84461,430.975 L1653.19561,406.431 C1653.13661,403.245 1652.78261,402.183 1651.18961,401.77 C1650.18661,401.593 1649.30161,401.534 1648.88861,401.534 C1648.29861,401.534 1648.18061,401.298 1648.18061,401.062 C1648.18061,400.767 1648.65261,400.708 1649.24261,400.708 C1651.77961,400.708 1654.25761,400.885 1654.78861,400.885 C1655.37861,400.885 1657.20761,400.708 1659.50861,400.708 C1660.15761,400.708 1660.33461,400.767 1660.33461,401.062 C1660.33461,401.298 1660.15761,401.475 1659.80361,401.534 C1659.44961,401.593 1658.97761,401.593 1658.32861,401.711 C1656.97161,402.006 1656.55861,402.596 1656.55861,406.136 L1656.44061,435.754 C1656.44061,438.704 1656.32261,438.999 1655.90961,438.999 C1655.49661,438.999 1654.90661,438.586 1652.01561,435.872 C1651.77961,435.754 1643.57861,427.612 1638.44561,422.597 C1632.30961,416.225 1626.40961,410.089 1624.93461,408.555 L1625.70161,431.624 C1625.81961,435.695 1626.17361,437.229 1627.64861,437.583 C1628.59261,437.819 1629.59561,437.819 1630.06761,437.819 C1630.53961,437.819 1630.77561,437.996 1630.77561,438.232 C1630.77561,438.527 1630.48061,438.645 1629.83161,438.645 C1626.64561,438.645 1624.52161,438.468 1624.10861,438.468 C1623.69561,438.468 1621.51261,438.645 1618.97561,438.645 C1618.44461,438.645 1618.09061,438.586 1618.09061,438.232 C1618.09061,437.996 1618.32661,437.819 1618.91661,437.819 C1619.32961,437.819 1619.97861,437.819 1620.74561,437.583 C1622.04361,437.17 1622.33861,435.577 1622.33861,431.27 Z M1681.74323,439.294 C1667.28823,439.294 1661.38823,428.556 1661.38823,419.588 C1661.38823,411.741 1667.46523,400 1682.03823,400 C1693.72023,400 1702.62923,406.962 1702.62923,418.821 C1702.62923,430.09 1694.31023,439.294 1681.74323,439.294 Z M1683.21823,437.288 C1687.17123,437.288 1697.08323,435.282 1697.08323,420.296 C1697.08323,408.437 1689.76723,401.829 1681.68423,401.829 C1673.48323,401.829 1666.87523,406.903 1666.87523,418.054 C1666.87523,429.618 1673.30623,437.288 1683.21823,437.288 Z M1715.65384,434.81 L1706.56784,405.723 C1705.74184,403.127 1705.32884,402.242 1703.67684,401.77 C1703.02784,401.593 1701.96584,401.534 1701.55284,401.534 C1701.25784,401.534 1700.84484,401.416 1700.84484,401.062 C1700.84484,400.826 1701.13984,400.708 1701.72984,400.708 C1704.79784,400.708 1707.51184,400.885 1708.10184,400.885 C1708.51484,400.885 1711.11084,400.708 1713.88384,400.708 C1714.59184,400.708 1714.70984,400.944 1714.70984,401.121 C1714.70984,401.475 1714.35584,401.593 1713.88384,401.593 C1713.47084,401.593 1712.64484,401.593 1711.99584,401.829 C1711.46484,402.006 1711.40584,402.478 1711.40584,403.068 C1711.40584,403.717 1711.87784,405.369 1712.40884,407.611 C1713.17584,410.797 1718.24984,428.32 1719.13484,431.152 L1730.04984,403.422 C1730.87584,401.18 1731.17084,400.885 1731.46584,400.885 C1731.87884,400.885 1732.17384,401.593 1732.88184,403.481 L1743.32484,431.211 C1744.74084,426.373 1749.69684,411.387 1751.28984,405.546 C1751.70284,404.012 1751.76184,403.717 1751.76184,403.068 C1751.76184,402.183 1751.46684,401.534 1748.92984,401.534 C1748.39884,401.534 1748.16284,401.298 1748.16284,401.062 C1748.16284,400.826 1748.39884,400.708 1749.04784,400.708 C1751.23084,400.708 1753.59084,400.885 1754.00384,400.885 C1754.35784,400.885 1757.24884,400.708 1758.84184,400.708 C1759.31384,400.708 1759.54984,400.885 1759.54984,401.062 C1759.54984,401.357 1759.25484,401.534 1758.78284,401.534 C1758.60584,401.534 1757.83884,401.593 1757.24884,401.711 C1755.47884,402.124 1754.88884,404.602 1753.94484,407.257 C1751.64384,413.629 1746.39284,429.441 1744.62284,434.338 C1743.08884,438.468 1742.67584,439.294 1742.20384,439.294 C1741.61384,439.294 1741.25984,438.468 1740.49284,436.285 L1730.34484,409.381 C1728.45684,413.983 1721.31784,431.801 1719.54784,436.285 C1718.66284,438.586 1718.24984,439.294 1717.71884,439.294 C1717.12884,439.294 1716.83384,438.527 1715.65384,434.81 Z M1769.44446,415.222 L1769.44446,424.19 C1769.44446,430.975 1769.68046,434.397 1770.68346,435.341 C1771.62746,436.167 1772.80746,436.521 1776.87846,436.521 C1779.47446,436.521 1781.83446,436.521 1783.13246,434.869 C1783.72246,433.984 1784.13546,432.804 1784.25346,431.919 C1784.31246,431.447 1784.43046,431.211 1784.72546,431.211 C1784.96146,431.211 1785.07946,431.388 1785.07946,431.978 C1785.07946,432.568 1784.72546,435.931 1784.37146,437.288 C1784.01746,438.468 1784.07646,438.763 1781.24446,438.763 C1777.23246,438.763 1772.80746,438.468 1766.90746,438.468 C1764.96046,438.468 1763.78046,438.645 1761.71546,438.645 C1761.12546,438.645 1760.77146,438.527 1760.77146,438.173 C1760.77146,437.996 1760.94846,437.819 1761.42046,437.819 C1761.89246,437.819 1762.36446,437.819 1762.83646,437.701 C1763.83946,437.524 1764.19346,436.344 1764.37046,434.928 C1764.72446,432.686 1764.60646,428.615 1764.60646,424.072 L1764.60646,415.222 C1764.60646,407.434 1764.60646,406.136 1764.48846,404.543 C1764.37046,402.891 1764.13446,401.829 1762.12846,401.593 C1761.77446,401.534 1761.12546,401.534 1760.65346,401.534 C1760.24046,401.534 1760.00446,401.357 1760.00446,401.121 C1760.00446,400.826 1760.29946,400.708 1760.88946,400.708 C1763.36746,400.708 1766.90746,400.885 1767.02546,400.885 C1767.85146,400.885 1771.45046,400.708 1773.10246,400.708 C1773.69246,400.708 1773.86946,400.885 1773.86946,401.121 C1773.86946,401.357 1773.57446,401.534 1773.22046,401.534 C1772.80746,401.534 1772.21746,401.593 1771.62746,401.652 C1769.97546,401.888 1769.62146,402.832 1769.50346,404.543 C1769.38546,406.136 1769.44446,407.434 1769.44446,415.222 Z M1792.29807,424.072 L1792.29807,415.222 C1792.29807,407.493 1792.29807,406.077 1792.18007,404.484 C1792.06207,402.832 1791.64907,402.006 1789.93807,401.652 C1789.58407,401.593 1788.99407,401.534 1788.52207,401.534 C1788.10907,401.534 1787.75507,401.357 1787.75507,401.18 C1787.75507,400.826 1788.05007,400.708 1788.64007,400.708 C1789.82007,400.708 1791.41307,400.826 1794.71707,400.885 C1795.01207,400.885 1805.51407,400.885 1806.69407,400.826 C1807.87407,400.767 1808.52307,400.708 1808.99507,400.531 C1809.34907,400.413 1809.40807,400.354 1809.64407,400.354 C1809.76207,400.354 1809.88007,400.472 1809.88007,400.767 C1809.88007,401.121 1809.52607,401.947 1809.40807,403.422 C1809.34907,404.425 1809.29007,405.369 1809.23107,406.49 C1809.23107,407.021 1809.11307,407.375 1808.81807,407.375 C1808.52307,407.375 1808.40507,407.139 1808.40507,406.726 C1808.34607,405.841 1808.16907,405.251 1807.99207,404.838 C1807.63807,403.658 1807.10707,403.245 1804.15707,403.068 C1803.39007,403.009 1797.54907,402.95 1797.43107,402.95 C1797.25407,402.95 1797.13607,403.068 1797.13607,403.422 L1797.13607,416.815 C1797.13607,417.169 1797.19507,417.405 1797.49007,417.405 C1798.19807,417.405 1804.21607,417.346 1805.45507,417.228 C1806.81207,417.169 1807.69707,416.992 1808.16907,416.343 C1808.40507,415.989 1808.58207,415.871 1808.81807,415.871 C1808.93607,415.871 1809.05407,415.93 1809.05407,416.225 C1809.05407,416.52 1808.81807,417.641 1808.64107,419.352 C1808.46407,421.004 1808.46407,422.184 1808.40507,422.951 C1808.34607,423.423 1808.22807,423.6 1807.99207,423.6 C1807.69707,423.6 1807.63807,423.246 1807.63807,422.833 C1807.63807,422.479 1807.57907,421.889 1807.46107,421.417 C1807.22507,420.65 1806.87107,419.824 1804.62907,419.647 C1803.27207,419.529 1798.49307,419.411 1797.54907,419.411 C1797.19507,419.411 1797.13607,419.588 1797.13607,419.824 L1797.13607,424.131 C1797.13607,425.96 1797.07707,431.152 1797.13607,432.155 C1797.25407,434.338 1797.54907,435.459 1798.78807,435.99 C1799.67307,436.403 1801.08907,436.521 1803.09507,436.521 C1804.21607,436.521 1806.10407,436.58 1807.57907,436.167 C1809.34907,435.636 1809.76207,434.456 1810.23407,432.273 C1810.35207,431.683 1810.52907,431.447 1810.76507,431.447 C1811.11907,431.447 1811.11907,431.978 1811.11907,432.332 C1811.11907,432.745 1810.64707,436.462 1810.47007,437.465 C1810.23407,438.645 1809.82107,438.763 1807.87407,438.763 C1803.98007,438.763 1802.32807,438.645 1800.26307,438.645 C1798.19807,438.586 1795.48407,438.468 1793.30107,438.468 C1791.94407,438.468 1790.82307,438.645 1789.40707,438.645 C1788.87607,438.645 1788.58107,438.527 1788.58107,438.232 C1788.58107,437.996 1788.81707,437.819 1789.11207,437.819 C1789.46607,437.819 1789.87907,437.76 1790.29207,437.642 C1791.35407,437.406 1792.06207,436.639 1792.18007,432.981 C1792.23907,430.975 1792.29807,428.556 1792.29807,424.072 Z M1818.89268,423.954 L1818.89268,415.222 C1818.89268,407.434 1818.89268,405.959 1818.77468,404.425 C1818.65668,402.832 1818.18468,402.006 1816.47368,401.652 C1816.11968,401.593 1815.23468,401.534 1814.76268,401.534 C1814.46768,401.534 1814.17268,401.357 1814.17268,401.18 C1814.17268,400.826 1814.52668,400.708 1815.05768,400.708 C1817.47668,400.708 1821.19368,400.885 1821.37068,400.885 C1821.78368,400.885 1824.85168,400.708 1828.15568,400.708 C1833.34768,400.708 1843.02368,400.177 1849.27768,406.49 C1851.87368,409.086 1854.29268,413.216 1854.29268,419.175 C1854.29268,425.429 1851.57868,430.326 1848.68768,433.276 C1846.38668,435.577 1841.90268,439.058 1832.93468,439.058 C1830.69268,439.058 1827.80168,438.94 1825.55968,438.763 C1823.31768,438.645 1821.48868,438.468 1821.31168,438.468 C1821.19368,438.468 1820.42668,438.468 1819.30568,438.527 C1818.18468,438.527 1816.76868,438.645 1815.88368,438.645 C1815.35268,438.645 1815.05768,438.527 1815.05768,438.232 C1815.05768,438.055 1815.23468,437.819 1815.70668,437.819 C1816.17868,437.819 1816.59168,437.76 1817.06368,437.642 C1818.06668,437.465 1818.42068,436.226 1818.59768,434.928 C1818.95168,432.745 1818.89268,428.733 1818.89268,423.954 Z M1823.81068,414.278 L1823.81068,420.237 C1823.81068,425.547 1823.86968,430.149 1823.86968,431.034 C1823.92868,432.863 1824.04668,434.456 1824.45968,434.987 C1825.10868,435.99 1826.99668,437.229 1833.13268,437.229 C1837.97068,437.229 1842.33668,435.695 1845.40468,432.627 C1848.00068,430.031 1849.23968,425.606 1849.23968,420.886 C1849.23968,414.219 1846.17168,410.148 1844.16568,408.201 C1839.15068,403.186 1833.36868,402.596 1827.52768,402.596 C1826.70168,402.596 1824.87268,402.773 1824.51868,403.009 C1824.04668,403.245 1823.86968,403.481 1823.86968,404.012 C1823.81068,405.723 1823.81068,410.738 1823.81068,414.278 Z M1893.7463,428.969 L1893.7463,434.279 C1893.7463,436.639 1893.6873,436.698 1893.0383,437.052 C1889.7933,438.704 1885.0733,439.294 1882.1823,439.294 C1878.3473,439.294 1870.9133,438.999 1864.8953,433.984 C1861.7093,431.329 1858.5233,426.373 1858.5233,419.647 C1858.5233,411.623 1862.5943,405.9 1867.4323,403.009 C1871.9753,400.354 1876.9903,400 1880.5893,400 C1884.3653,400 1886.9023,400.472 1889.0263,400.826 C1889.9703,401.003 1892.2713,401.298 1893.5103,401.357 C1893.9823,401.357 1893.9823,401.593 1893.9823,401.829 C1893.9823,402.537 1893.5693,404.307 1893.5693,409.499 C1893.5693,410.325 1893.5103,410.561 1893.0973,410.561 C1892.8023,410.561 1892.7433,410.207 1892.6843,409.853 C1892.6843,409.322 1892.4483,407.493 1891.5633,406.195 C1890.2063,404.248 1885.9583,402.065 1879.3503,402.065 C1876.1643,402.065 1872.4473,402.183 1868.4943,405.192 C1865.4853,407.493 1863.5383,411.977 1863.5383,417.818 C1863.5383,424.839 1867.3733,430.031 1868.9073,431.506 C1872.8013,435.282 1877.1673,436.993 1882.3003,436.993 C1883.9523,436.993 1886.5483,436.698 1887.9053,435.99 C1888.4953,435.636 1888.9083,435.046 1888.9083,434.22 L1888.9083,425.724 C1888.9083,421.83 1888.6133,421.063 1886.5483,420.768 C1886.1943,420.709 1885.6043,420.65 1885.1323,420.65 C1884.6603,420.65 1884.4243,420.414 1884.4243,420.237 C1884.4243,419.942 1884.6603,419.824 1885.3093,419.824 C1887.6693,419.824 1891.0913,419.942 1891.3273,419.942 C1891.5633,419.942 1895.0443,419.824 1896.6373,419.824 C1897.2273,419.824 1897.4633,419.942 1897.4633,420.237 C1897.4633,420.414 1897.2863,420.65 1896.7553,420.65 C1896.3423,420.65 1896.2243,420.65 1895.7523,420.709 C1894.3363,420.886 1893.9823,421.948 1893.8643,423.659 C1893.7463,425.37 1893.7463,426.845 1893.7463,428.969 Z M1901.17791,424.072 L1901.17791,415.222 C1901.17791,407.493 1901.17791,406.077 1901.05991,404.484 C1900.94191,402.832 1900.52891,402.006 1898.81791,401.652 C1898.46391,401.593 1897.87391,401.534 1897.40191,401.534 C1896.98891,401.534 1896.63491,401.357 1896.63491,401.18 C1896.63491,400.826 1896.92991,400.708 1897.51991,400.708 C1898.69991,400.708 1900.29291,400.826 1903.59691,400.885 C1903.89191,400.885 1914.39391,400.885 1915.57391,400.826 C1916.75391,400.767 1917.40291,400.708 1917.87491,400.531 C1918.22891,400.413 1918.28791,400.354 1918.52391,400.354 C1918.64191,400.354 1918.75991,400.472 1918.75991,400.767 C1918.75991,401.121 1918.40591,401.947 1918.28791,403.422 C1918.22891,404.425 1918.16991,405.369 1918.11091,406.49 C1918.11091,407.021 1917.99291,407.375 1917.69791,407.375 C1917.40291,407.375 1917.28491,407.139 1917.28491,406.726 C1917.22591,405.841 1917.04891,405.251 1916.87191,404.838 C1916.51791,403.658 1915.98691,403.245 1913.03691,403.068 C1912.26991,403.009 1906.42891,402.95 1906.31091,402.95 C1906.13391,402.95 1906.01591,403.068 1906.01591,403.422 L1906.01591,416.815 C1906.01591,417.169 1906.07491,417.405 1906.36991,417.405 C1907.07791,417.405 1913.09591,417.346 1914.33491,417.228 C1915.69191,417.169 1916.57691,416.992 1917.04891,416.343 C1917.28491,415.989 1917.46191,415.871 1917.69791,415.871 C1917.81591,415.871 1917.93391,415.93 1917.93391,416.225 C1917.93391,416.52 1917.69791,417.641 1917.52091,419.352 C1917.34391,421.004 1917.34391,422.184 1917.28491,422.951 C1917.22591,423.423 1917.10791,423.6 1916.87191,423.6 C1916.57691,423.6 1916.51791,423.246 1916.51791,422.833 C1916.51791,422.479 1916.45891,421.889 1916.34091,421.417 C1916.10491,420.65 1915.75091,419.824 1913.50891,419.647 C1912.15191,419.529 1907.37291,419.411 1906.42891,419.411 C1906.07491,419.411 1906.01591,419.588 1906.01591,419.824 L1906.01591,424.131 C1906.01591,425.96 1905.95691,431.152 1906.01591,432.155 C1906.13391,434.338 1906.42891,435.459 1907.66791,435.99 C1908.55291,436.403 1909.96891,436.521 1911.97491,436.521 C1913.09591,436.521 1914.98391,436.58 1916.45891,436.167 C1918.22891,435.636 1918.64191,434.456 1919.11391,432.273 C1919.23191,431.683 1919.40891,431.447 1919.64491,431.447 C1919.99891,431.447 1919.99891,431.978 1919.99891,432.332 C1919.99891,432.745 1919.52691,436.462 1919.34991,437.465 C1919.11391,438.645 1918.70091,438.763 1916.75391,438.763 C1912.85991,438.763 1911.20791,438.645 1909.14291,438.645 C1907.07791,438.586 1904.36391,438.468 1902.18091,438.468 C1900.82391,438.468 1899.70291,438.645 1898.28691,438.645 C1897.75591,438.645 1897.46091,438.527 1897.46091,438.232 C1897.46091,437.996 1897.69691,437.819 1897.99191,437.819 C1898.34591,437.819 1898.75891,437.76 1899.17191,437.642 C1900.23391,437.406 1900.94191,436.639 1901.05991,432.981 C1901.11891,430.975 1901.17791,428.556 1901.17791,424.072 Z M1584.543,484.072 L1584.543,475.222 C1584.543,467.08 1584.543,466.018 1584.425,464.425 C1584.307,462.891 1583.835,461.947 1582.183,461.593 C1581.77,461.534 1580.826,461.475 1580.354,461.475 C1580.236,461.475 1580,461.357 1580,461.18 C1580,460.826 1580.295,460.708 1580.826,460.708 C1583.363,460.708 1586.608,460.885 1586.962,460.885 C1588.201,460.885 1591.21,460.708 1593.629,460.708 C1600.119,460.708 1602.479,462.832 1603.305,463.54 C1604.426,464.543 1605.901,466.844 1605.901,470.148 C1605.901,476.697 1600.473,481.476 1593.098,481.476 C1592.862,481.476 1592.272,481.476 1591.977,481.417 C1591.741,481.417 1591.446,481.299 1591.446,481.063 C1591.446,480.591 1591.8,480.591 1592.921,480.591 C1597.582,480.591 1601.476,477.405 1601.476,472.213 C1601.476,471.446 1601.653,467.906 1598.939,465.074 C1596.048,462.006 1592.685,462.301 1591.623,462.301 C1590.856,462.301 1589.971,462.419 1589.617,462.596 C1589.322,462.714 1589.263,463.127 1589.263,463.54 L1589.263,483.954 C1589.263,488.497 1589.263,492.745 1589.499,494.869 C1589.676,496.285 1589.971,497.465 1591.564,497.642 C1592.272,497.76 1593.452,497.878 1593.924,497.878 C1594.16,497.878 1594.278,497.996 1594.278,498.173 C1594.278,498.468 1594.042,498.645 1593.452,498.645 C1590.384,498.645 1587.08,498.468 1586.785,498.468 C1586.726,498.468 1583.245,498.645 1581.593,498.645 C1581.062,498.645 1580.767,498.527 1580.767,498.173 C1580.767,497.996 1580.885,497.878 1581.18,497.878 C1581.593,497.878 1582.242,497.76 1582.714,497.642 C1583.776,497.465 1584.071,496.285 1584.248,494.869 C1584.543,492.745 1584.543,488.497 1584.543,484.072 Z M1612.49761,484.072 L1612.49761,475.222 C1612.49761,467.434 1612.49761,466.018 1612.37961,464.425 C1612.26161,462.832 1611.84861,461.947 1610.01961,461.593 C1609.66561,461.534 1609.07561,461.475 1608.60361,461.475 C1608.19061,461.475 1607.95461,461.357 1607.95461,461.121 C1607.95461,460.885 1608.13161,460.708 1608.66261,460.708 C1611.19961,460.708 1614.79861,460.885 1614.91661,460.885 C1615.44761,460.885 1619.45961,460.708 1621.11161,460.708 C1624.41561,460.708 1628.01461,461.003 1630.78761,462.95 C1631.90861,463.776 1634.32761,466.136 1634.32761,470.148 C1634.32761,473.393 1632.73461,477.523 1628.07361,481.299 C1632.38061,486.609 1635.92061,490.975 1638.92961,494.102 C1641.76161,496.993 1643.53161,497.465 1645.18361,497.701 C1645.59661,497.76 1646.83561,497.819 1647.01261,497.819 C1647.48461,497.819 1647.66161,497.996 1647.66161,498.232 C1647.66161,498.527 1647.42561,498.645 1646.59961,498.645 L1642.46961,498.645 C1639.69661,498.645 1638.39861,498.468 1637.10061,497.937 C1634.62261,496.875 1632.85261,494.22 1629.78461,490.267 C1627.48361,487.435 1625.12361,484.249 1624.12061,483.01 C1623.88461,482.774 1623.76661,482.656 1623.41261,482.656 L1617.33561,482.597 C1617.09961,482.597 1617.04061,482.656 1617.04061,482.892 L1617.04061,483.718 C1617.04061,488.438 1617.04061,492.745 1617.33561,494.869 C1617.51261,496.285 1617.68961,497.465 1619.63661,497.701 C1620.22661,497.76 1620.87561,497.819 1621.34761,497.819 C1621.87861,497.819 1622.11461,497.996 1622.11461,498.173 C1622.11461,498.468 1621.87861,498.645 1621.28861,498.645 C1618.22061,498.645 1614.91661,498.468 1614.68061,498.468 C1613.73661,498.468 1611.14061,498.645 1609.54761,498.645 C1608.95761,498.645 1608.72161,498.527 1608.72161,498.173 C1608.72161,497.996 1609.07561,497.819 1609.42961,497.819 C1609.84261,497.819 1610.25561,497.819 1610.72761,497.701 C1611.73061,497.524 1612.08461,496.875 1612.26161,495.459 C1612.55661,493.335 1612.49761,488.497 1612.49761,484.072 Z M1617.04061,463.363 L1617.04061,479.411 C1617.04061,479.706 1617.09961,480.001 1617.33561,480.119 C1618.10261,480.532 1620.46261,480.886 1622.58661,480.886 C1623.82561,480.886 1625.30061,480.827 1626.53961,480.001 C1628.30961,478.88 1629.48961,476.284 1629.48961,472.508 C1629.48961,466.077 1626.06761,462.537 1620.81661,462.537 C1619.34161,462.537 1618.10261,462.655 1617.39461,462.832 C1617.21761,462.891 1617.04061,463.068 1617.04061,463.363 Z M1661.92823,499.294 C1647.47323,499.294 1641.57323,488.556 1641.57323,479.588 C1641.57323,471.741 1647.65023,460 1662.22323,460 C1673.90523,460 1682.81423,466.962 1682.81423,478.821 C1682.81423,490.09 1674.49523,499.294 1661.92823,499.294 Z M1663.40323,497.288 C1667.35623,497.288 1677.26823,495.282 1677.26823,480.296 C1677.26823,468.437 1669.95223,461.829 1661.86923,461.829 C1653.66823,461.829 1647.06023,466.903 1647.06023,478.054 C1647.06023,489.618 1653.49123,497.288 1663.40323,497.288 Z M1694.30784,475.222 L1694.30784,486.491 C1694.30784,494.987 1694.36684,498.291 1692.71484,502.067 C1691.65284,504.604 1689.29284,506.964 1684.69084,510.032 C1684.04184,510.386 1683.15684,511.035 1682.62584,511.271 C1682.56684,511.33 1682.44884,511.33 1682.27184,511.33 C1682.15384,511.33 1681.85884,511.271 1681.85884,511.035 C1681.85884,510.681 1682.21284,510.563 1682.62584,510.268 C1683.21584,509.973 1683.92384,509.383 1684.27784,509.029 C1687.81784,505.666 1689.52884,503.129 1689.52884,489.618 L1689.52884,475.222 C1689.52884,467.434 1689.52884,466.077 1689.41084,464.484 C1689.29284,462.891 1688.76184,462.065 1687.10984,461.652 C1686.75584,461.593 1685.81184,461.534 1685.33984,461.534 C1685.16284,461.534 1684.92684,461.357 1684.92684,461.18 C1684.92684,460.826 1685.22184,460.708 1685.81184,460.708 C1688.28984,460.708 1691.71184,460.885 1691.88884,460.885 C1692.12484,460.885 1695.60584,460.708 1697.25784,460.708 C1697.84784,460.708 1698.08384,460.826 1698.08384,461.18 C1698.08384,461.357 1697.84784,461.534 1697.72984,461.534 C1697.37584,461.534 1697.02184,461.593 1696.37284,461.652 C1695.01584,461.947 1694.54384,462.832 1694.42584,464.543 C1694.30784,466.136 1694.30784,467.434 1694.30784,475.222 Z M1705.91946,484.072 L1705.91946,475.222 C1705.91946,467.493 1705.91946,466.077 1705.80146,464.484 C1705.68346,462.832 1705.27046,462.006 1703.55946,461.652 C1703.20546,461.593 1702.61546,461.534 1702.14346,461.534 C1701.73046,461.534 1701.37646,461.357 1701.37646,461.18 C1701.37646,460.826 1701.67146,460.708 1702.26146,460.708 C1703.44146,460.708 1705.03446,460.826 1708.33846,460.885 C1708.63346,460.885 1719.13546,460.885 1720.31546,460.826 C1721.49546,460.767 1722.14446,460.708 1722.61646,460.531 C1722.97046,460.413 1723.02946,460.354 1723.26546,460.354 C1723.38346,460.354 1723.50146,460.472 1723.50146,460.767 C1723.50146,461.121 1723.14746,461.947 1723.02946,463.422 C1722.97046,464.425 1722.91146,465.369 1722.85246,466.49 C1722.85246,467.021 1722.73446,467.375 1722.43946,467.375 C1722.14446,467.375 1722.02646,467.139 1722.02646,466.726 C1721.96746,465.841 1721.79046,465.251 1721.61346,464.838 C1721.25946,463.658 1720.72846,463.245 1717.77846,463.068 C1717.01146,463.009 1711.17046,462.95 1711.05246,462.95 C1710.87546,462.95 1710.75746,463.068 1710.75746,463.422 L1710.75746,476.815 C1710.75746,477.169 1710.81646,477.405 1711.11146,477.405 C1711.81946,477.405 1717.83746,477.346 1719.07646,477.228 C1720.43346,477.169 1721.31846,476.992 1721.79046,476.343 C1722.02646,475.989 1722.20346,475.871 1722.43946,475.871 C1722.55746,475.871 1722.67546,475.93 1722.67546,476.225 C1722.67546,476.52 1722.43946,477.641 1722.26246,479.352 C1722.08546,481.004 1722.08546,482.184 1722.02646,482.951 C1721.96746,483.423 1721.84946,483.6 1721.61346,483.6 C1721.31846,483.6 1721.25946,483.246 1721.25946,482.833 C1721.25946,482.479 1721.20046,481.889 1721.08246,481.417 C1720.84646,480.65 1720.49246,479.824 1718.25046,479.647 C1716.89346,479.529 1712.11446,479.411 1711.17046,479.411 C1710.81646,479.411 1710.75746,479.588 1710.75746,479.824 L1710.75746,484.131 C1710.75746,485.96 1710.69846,491.152 1710.75746,492.155 C1710.87546,494.338 1711.17046,495.459 1712.40946,495.99 C1713.29446,496.403 1714.71046,496.521 1716.71646,496.521 C1717.83746,496.521 1719.72546,496.58 1721.20046,496.167 C1722.97046,495.636 1723.38346,494.456 1723.85546,492.273 C1723.97346,491.683 1724.15046,491.447 1724.38646,491.447 C1724.74046,491.447 1724.74046,491.978 1724.74046,492.332 C1724.74046,492.745 1724.26846,496.462 1724.09146,497.465 C1723.85546,498.645 1723.44246,498.763 1721.49546,498.763 C1717.60146,498.763 1715.94946,498.645 1713.88446,498.645 C1711.81946,498.586 1709.10546,498.468 1706.92246,498.468 C1705.56546,498.468 1704.44446,498.645 1703.02846,498.645 C1702.49746,498.645 1702.20246,498.527 1702.20246,498.232 C1702.20246,497.996 1702.43846,497.819 1702.73346,497.819 C1703.08746,497.819 1703.50046,497.76 1703.91346,497.642 C1704.97546,497.406 1705.68346,496.639 1705.80146,492.981 C1705.86046,490.975 1705.91946,488.556 1705.91946,484.072 Z M1750.45307,499.294 C1742.66507,499.294 1737.35507,497.524 1733.16607,493.925 C1728.15107,489.559 1726.85307,483.777 1726.85307,478.88 C1726.85307,475.576 1728.15107,469.735 1732.81207,465.251 C1735.99807,462.183 1740.77707,460 1748.68307,460 C1751.39707,460 1753.58007,460.236 1756.47107,460.649 C1758.35907,460.944 1760.24707,461.239 1761.66307,461.298 C1762.13507,461.298 1762.19407,461.593 1762.19407,461.888 C1762.19407,462.36 1762.01707,462.891 1761.89907,464.779 C1761.84007,466.431 1761.84007,469.499 1761.78107,470.207 C1761.72207,471.033 1761.60407,471.328 1761.30907,471.328 C1760.89607,471.328 1760.83707,470.974 1760.83707,470.207 C1760.83707,468.496 1760.01107,466.195 1758.53607,465.074 C1756.76607,463.54 1752.63607,462.065 1748.09307,462.065 C1741.54407,462.065 1738.53507,463.894 1736.76507,465.487 C1732.93007,468.968 1732.04507,473.216 1732.04507,478.408 C1732.04507,488.202 1740.01007,496.816 1750.39407,496.816 C1754.40607,496.816 1757.35607,496.403 1759.42107,494.397 C1760.48307,493.276 1761.07307,491.801 1761.36807,490.149 C1761.48607,489.559 1761.66307,489.264 1762.01707,489.264 C1762.31207,489.264 1762.31207,489.677 1762.31207,490.09 C1762.31207,490.562 1761.54507,495.341 1761.13207,496.639 C1760.77807,497.583 1760.60107,497.76 1759.77507,498.114 C1757.71007,498.999 1753.75707,499.294 1750.45307,499.294 Z M1781.35768,463.009 L1781.35768,484.072 C1781.35768,488.615 1781.41668,492.804 1781.65268,494.987 C1781.82968,496.403 1781.94768,497.229 1783.42268,497.583 C1784.13068,497.76 1785.25168,497.819 1785.72368,497.819 C1786.19568,497.819 1786.43168,497.996 1786.43168,498.173 C1786.43168,498.468 1786.25468,498.645 1785.66468,498.645 C1782.65568,498.645 1779.17468,498.468 1778.93868,498.468 C1778.70268,498.468 1775.22168,498.645 1773.68768,498.645 C1773.03868,498.645 1772.80268,498.527 1772.80268,498.232 C1772.80268,498.055 1772.97968,497.819 1773.45168,497.819 C1773.92368,497.819 1774.27768,497.819 1774.74968,497.76 C1775.87068,497.583 1776.04768,496.875 1776.28368,494.869 C1776.51968,492.745 1776.51968,488.497 1776.51968,484.072 L1776.51968,463.009 C1774.57268,463.009 1771.44568,463.009 1769.08568,463.068 C1765.30968,463.127 1764.48368,463.717 1763.65768,464.956 C1763.12668,465.782 1762.89068,466.49 1762.77268,466.785 C1762.59568,467.198 1762.47768,467.257 1762.24168,467.257 C1762.00568,467.257 1761.94668,467.021 1761.94668,466.726 C1761.88768,466.372 1762.77268,462.478 1763.12668,460.885 C1763.30368,460.177 1763.48068,459.941 1763.65768,459.941 C1764.07068,459.941 1765.19168,460.472 1766.25368,460.59 C1768.31868,460.826 1769.97068,460.885 1770.02968,460.885 L1789.38168,460.885 C1791.03368,460.885 1792.80368,460.767 1793.62968,460.59 C1794.39668,460.413 1794.57368,460.354 1794.75068,460.354 C1794.98668,460.354 1795.10468,460.649 1795.10468,460.885 C1795.10468,462.537 1794.98668,466.431 1794.98668,466.903 C1794.98668,467.434 1794.75068,467.611 1794.57368,467.611 C1794.27868,467.611 1794.16068,467.375 1794.16068,466.903 C1794.16068,466.726 1794.16068,466.667 1794.10168,466.077 C1793.86568,463.717 1793.09868,463.127 1787.13968,463.068 C1784.89768,463.068 1783.06868,463.009 1781.35768,463.009 Z M1598.42353,238.624339 L1598.42353,201.375661 C1598.42353,168.359788 1598.42353,162.433862 1598,155.661376 C1597.57647,148.465608 1595.88235,145.079365 1588.89412,143.597884 C1587.2,143.174603 1583.6,142.962963 1581.69412,142.962963 C1580.84706,142.962963 1580,142.539683 1580,141.693122 C1580,140.42328 1581.05882,140 1583.38824,140 C1592.91765,140 1605.62353,140.634921 1607.31765,140.634921 C1611.97647,140.634921 1624.25882,140 1634,140 C1660.47059,140 1670,148.888889 1673.38824,152.063492 C1678.04706,156.507937 1683.97647,166.031746 1683.97647,179.78836 C1683.97647,207.301587 1661.95294,227.619048 1631.88235,227.619048 C1630.82353,227.619048 1628.49412,227.619048 1627.43529,227.407407 C1626.37647,227.407407 1625.10588,226.984127 1625.10588,225.925926 C1625.10588,224.232804 1626.37647,224.021164 1630.82353,224.021164 C1651.36471,224.021164 1667.45882,210.05291 1667.45882,187.830688 C1667.45882,182.539683 1666.82353,168.359788 1655.6,156.931217 C1644.37647,145.502646 1631.45882,146.349206 1626.58824,146.349206 C1622.98824,146.349206 1619.38824,146.772487 1617.48235,147.619048 C1616.21176,148.042328 1615.78824,149.52381 1615.78824,151.640212 L1615.78824,238.624339 C1615.78824,258.941799 1615.78824,275.661376 1616.84706,284.550265 C1617.48235,290.687831 1618.75294,295.343915 1625.10588,296.190476 C1628.07059,296.613757 1632.72941,297.037037 1634.63529,297.037037 C1635.90588,297.037037 1636.32941,297.671958 1636.32941,298.306878 C1636.32941,299.365079 1635.27059,300 1632.94118,300 C1621.29412,300 1607.95294,299.365079 1606.89412,299.365079 C1606.25882,299.365079 1592.91765,300 1586.56471,300 C1584.23529,300 1583.17647,299.57672 1583.17647,298.306878 C1583.17647,297.671958 1583.6,297.037037 1584.87059,297.037037 C1586.77647,297.037037 1589.31765,296.613757 1591.22353,296.190476 C1595.45882,295.343915 1596.51765,290.687831 1597.36471,284.550265 C1598.42353,275.661376 1598.42353,258.941799 1598.42353,238.624339 Z M1580,320 L1940,320 L1940,323 L1580,323 L1580,320 Z" id="PKP"></path>
        </g>
    </g>
</svg>