<svg width="28" height="10" viewBox="0 0 28 10" fill="none" xmlns="http://www.w3.org/2000/svg">
<path d="M4.312 7.984L0.28 5.954V4.554L4.312 2.524L5.026 3.966L2.184 5.254L5.026 6.542L4.312 7.984ZM17.5996 10L20.7076 0.199999H22.5696L19.4056 10H17.5996ZM27.8444 5.954L23.8124 7.984L23.0984 6.542L25.9404 5.254L23.0984 3.966L23.8124 2.524L27.8444 4.554V5.954Z" fill="#1F6F8B"/>
<path d="M9.42069 10H7.37669V6.738L5.30469 0.199999H7.20869L8.07669 3.182L8.37069 4.904H8.42669L8.72069 3.182L9.58869 0.199999H11.4927L9.42069 6.738V10ZM14.6126 8.376H17.0766V10H13.5206C12.9046 9.42133 12.4379 8.68867 12.1206 7.802C11.8033 6.91533 11.6446 6.00533 11.6446 5.072C11.6446 4.12933 11.8219 3.224 12.1766 2.356C12.5313 1.488 13.0586 0.769333 13.7586 0.199999H17.0766V1.88H14.6126C14.3606 2.16933 14.1413 2.636 13.9546 3.28C13.7773 3.924 13.6886 4.54 13.6886 5.128C13.6886 5.716 13.7773 6.332 13.9546 6.976C14.1413 7.62 14.3606 8.08667 14.6126 8.376Z" fill="white"/>
</svg>
