<svg width="70" height="11" viewBox="0 0 70 11" fill="none" xmlns="http://www.w3.org/2000/svg">
<path d="M4.312 8.984L0.28 6.954V5.554L4.312 3.524L5.026 4.966L2.184 6.254L5.026 7.542L4.312 8.984ZM58.834 11L61.942 1.2H63.804L60.64 11H58.834ZM69.0787 6.954L65.0467 8.984L64.3327 7.542L67.1747 6.254L64.3327 4.966L65.0467 3.524L69.0787 5.554V6.954Z" fill="#1F6F8B"/>
<path d="M9.42069 11H7.37669V7.738L5.30469 1.2H7.20869L8.07669 4.182L8.37069 5.904H8.42669L8.72069 4.182L9.58869 1.2H11.4927L9.42069 7.738V11ZM15.6119 11H13.0219C12.5739 10.636 12.2192 10.1553 11.9579 9.558C11.6965 8.96067 11.5659 8.298 11.5659 7.57V3.846H13.4279V7.514C13.4279 8.33533 13.5819 9.00733 13.8899 9.53H14.7439C15.0519 8.97933 15.2059 8.312 15.2059 7.528V3.846H17.0679V7.5C17.0679 8.23733 16.9372 8.914 16.6759 9.53C16.4145 10.146 16.0599 10.636 15.6119 11ZM21.3907 5.316H20.3407C20.2007 5.484 20.084 5.71733 19.9907 6.016C19.9067 6.31467 19.8647 6.604 19.8647 6.884H21.8667C21.8854 6.604 21.848 6.31467 21.7547 6.016C21.6614 5.708 21.54 5.47467 21.3907 5.316ZM23.2947 9.53V11H19.7387C19.0854 10.5613 18.6234 10.02 18.3527 9.376C18.0914 8.72267 17.9607 8.06467 17.9607 7.402C17.9607 5.87133 18.5394 4.686 19.6967 3.846H21.9647C22.59 4.30333 23.0147 4.78867 23.2387 5.302C23.4627 5.81533 23.5747 6.33333 23.5747 6.856C23.5747 7.37867 23.5327 7.82667 23.4487 8.2H19.9627C19.9907 8.41467 20.07 8.662 20.2007 8.942C20.3407 9.21267 20.49 9.40867 20.6487 9.53H23.2947ZM24.9954 3.846H28.0894V5.316H25.9054L27.2354 7.29C27.8327 8.13933 28.164 8.72267 28.2294 9.04C28.2667 9.18933 28.2854 9.34333 28.2854 9.502C28.2854 10.1647 28.038 10.664 27.5434 11H23.9734V9.53H26.5354L25.0374 7.332C24.972 7.22933 24.8694 7.08467 24.7294 6.898C24.5987 6.71133 24.496 6.562 24.4214 6.45C24.3467 6.32867 24.2954 6.24 24.2674 6.184C24.2394 6.128 24.202 6.058 24.1554 5.974C24.1087 5.88067 24.076 5.80133 24.0574 5.736C24.02 5.55867 24.0014 5.414 24.0014 5.302C24.0014 4.62067 24.3327 4.13533 24.9954 3.846ZM34.2181 9.376H36.6821V11H33.1261C32.5101 10.4213 32.0434 9.68867 31.7261 8.802C31.4087 7.91533 31.2501 7.00533 31.2501 6.072C31.2501 5.12933 31.4274 4.224 31.7821 3.356C32.1367 2.488 32.6641 1.76933 33.3641 1.2H36.6821V2.88H34.2181C33.9661 3.16933 33.7467 3.636 33.5601 4.28C33.3827 4.924 33.2941 5.54 33.2941 6.128C33.2941 6.716 33.3827 7.332 33.5601 7.976C33.7467 8.62 33.9661 9.08667 34.2181 9.376ZM40.7364 5.316H39.6864C39.5464 5.484 39.4297 5.71733 39.3364 6.016C39.2524 6.31467 39.2104 6.604 39.2104 6.884H41.2124C41.2311 6.604 41.1937 6.31467 41.1004 6.016C41.0071 5.708 40.8857 5.47467 40.7364 5.316ZM42.6404 9.53V11H39.0844C38.4311 10.5613 37.9691 10.02 37.6984 9.376C37.4371 8.72267 37.3064 8.06467 37.3064 7.402C37.3064 5.87133 37.8851 4.686 39.0424 3.846H41.3104C41.9357 4.30333 42.3604 4.78867 42.5844 5.302C42.8084 5.81533 42.9204 6.33333 42.9204 6.856C42.9204 7.37867 42.8784 7.82667 42.7944 8.2H39.3084C39.3364 8.41467 39.4157 8.662 39.5464 8.942C39.6864 9.21267 39.8357 9.40867 39.9944 9.53H42.6404ZM38.9864 2.222L41.3804 0.821999L42.0384 2.264L39.5464 3.356L38.9864 2.222ZM44.3411 3.846H47.4351V5.316H45.2511L46.5811 7.29C47.1784 8.13933 47.5097 8.72267 47.5751 9.04C47.6124 9.18933 47.6311 9.34333 47.6311 9.502C47.6311 10.1647 47.3837 10.664 46.8891 11H43.3191V9.53H45.8811L44.3831 7.332C44.3177 7.22933 44.2151 7.08467 44.0751 6.898C43.9444 6.71133 43.8417 6.562 43.7671 6.45C43.6924 6.32867 43.6411 6.24 43.6131 6.184C43.5851 6.128 43.5477 6.058 43.5011 5.974C43.4544 5.88067 43.4217 5.80133 43.4031 5.736C43.3657 5.55867 43.3471 5.414 43.3471 5.302C43.3471 4.62067 43.6784 4.13533 44.3411 3.846ZM51.7729 7.766H50.2749C50.0789 8.00867 49.9809 8.312 49.9809 8.676C49.9809 9.04 50.0835 9.32467 50.2889 9.53H51.7729V7.766ZM48.7629 3.846H52.2349C52.7949 4.182 53.1635 4.56933 53.3409 5.008C53.5182 5.43733 53.6069 6.02533 53.6069 6.772V8.872C53.6069 9.64667 53.6255 10.356 53.6629 11H52.0669L51.8149 10.496C51.4509 10.832 50.9375 11 50.2749 11H49.3929C48.5995 10.4773 48.2029 9.726 48.2029 8.746C48.2029 7.75667 48.6089 6.97733 49.4209 6.408H50.7369C51.1009 6.408 51.4415 6.52 51.7589 6.744V6.044C51.7589 5.68 51.6002 5.43733 51.2829 5.316H48.7629V3.846ZM54.825 11V3.846H56.155L56.505 4.602C56.8783 4.098 57.3497 3.846 57.919 3.846H58.465V5.722H56.687V11H54.825Z" fill="white"/>
</svg>
